HIERARCHY
ROOT Root
{
	OFFSET 0.00000 0.00000 0.00000
	CHANNELS 6 Xposition Yposition Zposition Zrotation Xrotation Yrotation
	JOINT Hip
	{
		OFFSET 0 0 0	
		CHANNELS 3 Zrotation Xrotation Yrotation
		JOINT Tummy
		{
			OFFSET 0 0.04 0	
			CHANNELS 3 Zrotation Xrotation Yrotation
			JOINT ChestBottom
			{
				OFFSET 0 0.194 0	
				CHANNELS 3 Zrotation Xrotation Yrotation
				JOINT ChestTop
				{
					OFFSET 0 0.166 0	
					CHANNELS 3 Zrotation Xrotation Yrotation
					JOINT LeftCollar
					{
						OFFSET 0 0.1 0	
						CHANNELS 3 Zrotation Xrotation Yrotation
						JOINT LeftUpperArm
						{
							OFFSET 0.156 -0.02 0.03	
							CHANNELS 3 Zrotation Xrotation Yrotation
							JOINT LeftForeArm
							{
								OFFSET 0.035 -0.27 -0.01	
								CHANNELS 3 Zrotation Xrotation Yrotation
								JOINT LeftHand
								{
									OFFSET 0.01 -0.27 0.01	
									CHANNELS 3 Zrotation Xrotation Yrotation
									End Site
									{
										OFFSET 0 -0.15 0
									}
								}
							}
						}
					}
					JOINT RightCollar
					{
						OFFSET 0 0.1 0	
						CHANNELS 3 Zrotation Xrotation Yrotation
						JOINT RightUpperArm
						{
							OFFSET -0.156 -0.02 0.03	
							CHANNELS 3 Zrotation Xrotation Yrotation
							JOINT RightForeArm
							{
								OFFSET -0.035 -0.27 -0.01	
								CHANNELS 3 Zrotation Xrotation Yrotation
								JOINT RightHand
								{
									OFFSET -0.01 -0.27 0.01	
									CHANNELS 3 Zrotation Xrotation Yrotation
									End Site
									{
										OFFSET 0 -0.15 0
									}
								}
							}
						}
					}
					JOINT Neck
					{
						OFFSET 0 0.1 0	
						CHANNELS 3 Zrotation Xrotation Yrotation
						JOINT Head
						{
							OFFSET 0 0.127 0.03	
							CHANNELS 3 Zrotation Xrotation Yrotation
							End Site
							{
								OFFSET 0 0.127 0.03
							}
						}
					}
				}
			}
		}
	}
	JOINT LeftHip
	{
		OFFSET 0 0 0	
		CHANNELS 3 Zrotation Xrotation Yrotation
		JOINT LeftThigh
		{
			OFFSET 0.088 -0.06 0	
			CHANNELS 3 Zrotation Xrotation Yrotation
			JOINT LeftLowerLeg
			{
				OFFSET 0 -0.39 0.02	
				CHANNELS 3 Zrotation Xrotation Yrotation
				JOINT LeftFootTop
				{
					OFFSET 0 -0.43 -0.02	
					CHANNELS 3 Zrotation Xrotation Yrotation
					JOINT LeftFootFront
					{
						OFFSET 0 -0.07 0.085	
						CHANNELS 3 Zrotation Xrotation Yrotation
						End Site
						{
							OFFSET 0 -0.005 0.09
						}
					}
				}
				JOINT LeftHeel
				{
					OFFSET 0 -0.43 -0.02	
					CHANNELS 3 Zrotation Xrotation Yrotation
					End Site
					{
						OFFSET 0 -0.075 -0.05
					}
				}
			}
		}
	}
	JOINT RightHip
	{
		OFFSET 0 0 0	
		CHANNELS 3 Zrotation Xrotation Yrotation
		JOINT RightThigh
		{
			OFFSET -0.088 -0.06 0	
			CHANNELS 3 Zrotation Xrotation Yrotation
			JOINT RightLowerLeg
			{
				OFFSET 0 -0.39 0.02	
				CHANNELS 3 Zrotation Xrotation Yrotation
				JOINT RightFootTop
				{
					OFFSET 0 -0.43 -0.02	
					CHANNELS 3 Zrotation Xrotation Yrotation
					JOINT RightFootFront
					{
						OFFSET 0 -0.07 0.085	
						CHANNELS 3 Zrotation Xrotation Yrotation
						End Site
						{
							OFFSET 0 -0.005 0.09
						}
					}
				}
				JOINT RightHeel
				{
					OFFSET 0 -0.43 -0.02	
					CHANNELS 3 Zrotation Xrotation Yrotation
					End Site
					{
						OFFSET 0 -0.075 -0.05
					}
				}
			}
		}
	}
}
MOTION
Frames: 11
Frame Time: 0.05
0 0.9566 0 -0 0 -0 -0.79092 3.6391 0.72221 0.098854 0.88126 0.7898 0.098854 0.88126 0.7898 0.083853 0.74017 0.66352 -0 0 -0 2.025 -1.0261 -1.7007 -2.6006 -5.9642 -19.385 -0 0 -0 -0 0 -0 0.87057 -5.1346 -10.955 -1.0526 -0.61681 4.3392 -0 0 -0 -0.50649 -7.3975 0.22717 -0.3358 -6.6627 0.90171 -0.79092 3.6391 0.72221 -0.28427 -4.6755 1.612 -0 0 -0 -0 0 -0 -0 0 -0 -0 0 -0 -0.79092 3.6391 0.72221 1.5489 -3.9138 0.2036 -0 0 -0 -0 0 -0 -0 0 -0 -0 0 -0 
0 0.9566 0 -0 0 -0 -0.77242 3.6556 0.72261 0.091046 0.87464 0.7975 0.091046 0.87463 0.7975 0.077296 0.73461 0.66998 -0 0 -0 2.0153 -1.0243 -1.6925 -2.6064 -5.9708 -19.388 -0 0 -0 -0 0 -0 0.8819 -5.1264 -11 -1.0903 -0.61673 4.3422 -0 0 -0 -0.508 -7.3932 0.21555 -0.34308 -6.664 0.89657 -0.77242 3.6556 0.72261 -0.27964 -4.7181 1.6119 -0 0 -0 -0 0 -0 -0 0 -0 -0 0 -0 -0.77242 3.6556 0.72261 1.5265 -3.9248 0.20777 -0 0 -0 -0 0 -0 -0 0 -0 -0 0 -0 
0 0.9566 0 -0 0 -0 -0.77121 3.6738 0.73361 0.097831 0.85777 0.78546 0.097832 0.85776 0.78546 0.082968 0.72043 0.65987 -0 0 -0 1.9779 -0.99482 -1.6416 -2.6591 -5.966 -19.329 -0 0 -0 -0 0 -0 0.88732 -5.0978 -10.99 -1.1287 -0.6133 4.3597 -0 0 -0 -0.52825 -7.3768 0.24279 -0.35913 -6.662 0.91375 -0.77121 3.6738 0.73361 -0.25957 -4.7597 1.5874 -0 0 -0 -0 0 -0 -0 0 -0 -0 0 -0 -0.77121 3.6738 0.73361 1.522 -3.9382 0.20732 -0 0 -0 -0 0 -0 -0 0 -0 -0 0 -0 
0 0.9566 0 -0 0 -0 -0.75494 3.6941 0.736 0.090008 0.84534 0.78007 0.090008 0.84534 0.78007 0.076379 0.71 0.65534 -0 0 -0 1.9617 -0.9872 -1.6168 -2.8637 -5.9005 -19.072 -0 0 -0 -0 0 -0 0.95083 -5.1004 -11.004 -1.1694 -0.61554 4.3748 -0 0 -0 -0.52369 -7.371 0.27168 -0.36184 -6.6665 0.93794 -0.75494 3.6941 0.736 -0.26598 -4.7937 1.57 -0 0 -0 -0 0 -0 -0 0 -0 -0 0 -0 -0.75494 3.6941 0.736 1.5075 -3.9568 0.22476 -0 0 -0 -0 0 -0 -0 0 -0 -0 0 -0 
0 0.9566 0 -0 0 -0 -0.75368 3.7299 0.73318 0.095255 0.82855 0.7769 0.095255 0.82855 0.7769 0.080768 0.69589 0.65268 -0 0 -0 1.9419 -0.98589 -1.6119 -3.158 -5.772 -18.696 -0 0 -0 -0 0 -0 0.96551 -5.0893 -11.008 -1.1884 -0.62 4.4032 -0 0 -0 -0.53669 -7.3606 0.2995 -0.37091 -6.6704 0.96311 -0.75368 3.7299 0.73318 -0.24295 -4.85 1.556 -0 0 -0 -0 0 -0 -0 0 -0 -0 0 -0 -0.75368 3.7299 0.73318 1.5119 -3.9997 0.24386 -0 0 -0 -0 0 -0 -0 0 -0 -0 0 -0 
0 0.9566 0 -0 0 -0 -0.75618 3.7476 0.73441 0.099038 0.82134 0.77457 0.099038 0.82134 0.77457 0.083938 0.68984 0.65073 -0 0 -0 1.9307 -0.98787 -1.6126 -3.4294 -5.6093 -18.258 -0 0 -0 -0 0 -0 0.98157 -5.086 -11.02 -1.1901 -0.63538 4.4134 -0 0 -0 -0.5463 -7.3566 0.31154 -0.37763 -6.6725 0.97326 -0.75618 3.7476 0.73441 -0.19402 -4.9177 1.504 -0 0 -0 -0 0 -0 -0 0 -0 -0 0 -0 -0.75618 3.7476 0.73441 1.527 -4.026 0.26989 -0 0 -0 -0 0 -0 -0 0 -0 -0 0 -0 
0 0.9566 0 -0 0 -0 -0.76188 3.7556 0.74699 0.10574 0.81781 0.76153 0.10574 0.81781 0.76153 0.089554 0.68687 0.63978 -0 0 -0 1.9169 -0.98494 -1.5826 -3.7449 -5.5009 -17.856 -0 0 -0 -0 0 -0 0.99977 -5.0705 -11.011 -1.1925 -0.63271 4.4183 -0 0 -0 -0.55736 -7.3502 0.33534 -0.38455 -6.6691 0.98612 -0.76188 3.7556 0.74699 -0.16895 -4.9436 1.468 -0 0 -0 -0 0 -0 -0 0 -0 -0 0 -0 -0.76188 3.7556 0.74699 1.5474 -4.0438 0.28547 -0 0 -0 -0 0 -0 -0 0 -0 -0 0 -0 
0 0.9566 0 -0 0 -0 -0.76595 3.7764 0.76139 0.10889 0.80803 0.7461 0.10889 0.80803 0.7461 0.092174 0.67865 0.62682 -0 0 -0 1.9101 -0.96181 -1.5564 -3.8265 -5.5109 -17.693 -0 0 -0 -0 0 -0 1.0217 -5.0548 -11.007 -1.2137 -0.63254 4.4394 -0 0 -0 -0.56141 -7.341 0.36725 -0.38776 -6.6681 1.005 -0.76595 3.7764 0.76139 -0.15015 -4.986 1.4609 -0 0 -0 -0 0 -0 -0 0 -0 -0 0 -0 -0.76595 3.7764 0.76139 1.5581 -4.0726 0.28796 -0 0 -0 -0 0 -0 -0 0 -0 -0 0 -0 
0 0.9566 0 -0 0 -0 -0.7543 3.7965 0.7718 0.10632 0.79491 0.72867 0.10632 0.79491 0.72867 0.089983 0.66763 0.61217 -0 0 -0 1.8987 -0.92343 -1.5152 -3.994 -5.4868 -17.433 -0 0 -0 -0 0 -0 1.0492 -5.0309 -10.982 -1.2192 -0.63396 4.4464 -0 0 -0 -0.56187 -7.3229 0.40619 -0.3925 -6.6609 1.029 -0.7543 3.7965 0.7718 -0.15534 -5.042 1.4574 -0 0 -0 -0 0 -0 -0 0 -0 -0 0 -0 -0.7543 3.7965 0.7718 1.5541 -4.1032 0.29074 -0 0 -0 -0 0 -0 -0 0 -0 -0 0 -0 
0 0.9566 0 -0 0 -0 -0.75451 3.7984 0.77822 0.11485 0.80088 0.7163 0.11485 0.80088 0.7163 0.097142 0.67264 0.60179 -0 0 -0 1.8647 -0.93712 -1.4544 -4.25 -5.4113 -17.064 -0 0 -0 -0 0 -0 1.0596 -5.0522 -10.961 -1.2309 -0.63412 4.4567 -0 0 -0 -0.58408 -7.3319 0.43929 -0.40875 -6.665 1.052 -0.75451 3.7984 0.77822 -0.15111 -5.0428 1.4433 -0 0 -0 -0 0 -0 -0 0 -0 -0 0 -0 -0.75451 3.7984 0.77822 1.5617 -4.1076 0.28197 -0 0 -0 -0 0 -0 -0 0 -0 -0 0 -0 
0 0.9566 0 -0 0 -0 -0.74763 3.8238 0.78157 0.12686 0.7867 0.70588 0.12686 0.7867 0.70588 0.10721 0.66072 0.59305 -0 0 -0 1.8227 -0.90966 -1.4128 -4.1942 -5.4499 -17.044 -0 0 -0 -0 0 -0 1.0544 -5.0364 -10.94 -1.2376 -0.63129 4.4545 -0 0 -0 -0.60742 -7.3216 0.46563 -0.42323 -6.6668 1.0697 -0.74763 3.8238 0.78157 -0.14529 -5.0729 1.4303 -0 0 -0 -0 0 -0 -0 0 -0 -0 0 -0 -0.74763 3.8238 0.78157 1.5645 -4.1135 0.27872 -0 0 -0 -0 0 -0 -0 0 -0 -0 0 -0 
